<svg width="29" height="27" viewBox="0 0 29 27" fill="none" xmlns="http://www.w3.org/2000/svg">
<path d="M20.3652 14.1954L15.5734 24.023C14.6202 24.023 13.7061 23.6779 13.0321 23.0635C12.3581 22.4492 11.9795 21.616 11.9795 20.7471V16.3793H5.1991C4.8518 16.3829 4.5078 16.3176 4.19093 16.188C3.87407 16.0584 3.59191 15.8675 3.364 15.6286C3.1361 15.3897 2.9679 15.1085 2.87107 14.8045C2.77423 14.5004 2.75107 14.1808 2.80319 13.8678L4.45637 4.04025C4.54301 3.51949 4.8332 3.04482 5.27348 2.70369C5.71376 2.36257 6.27446 2.17797 6.85227 2.18393H20.3652M20.3652 14.1954V2.18393M20.3652 14.1954H23.5637C24.2417 14.2064 24.9005 13.99 25.415 13.5874C25.9296 13.1848 26.264 12.624 26.3549 12.0115V4.36784C26.264 3.75531 25.9296 3.19453 25.415 2.79195C24.9005 2.38936 24.2417 2.173 23.5637 2.18393H20.3652" stroke="#1E1E1E" stroke-width="2" stroke-linecap="round" stroke-linejoin="round"/>
</svg>
