<svg width="29" height="27" viewBox="0 0 29 27" fill="none" xmlns="http://www.w3.org/2000/svg">
<path d="M8.38563 12.0115L13.1774 2.1839C14.1306 2.1839 15.0447 2.52903 15.7187 3.14338C16.3927 3.75772 16.7713 4.59095 16.7713 5.45976V9.82758H23.5517C23.899 9.82399 24.243 9.88928 24.5599 10.0189C24.8767 10.1485 25.1589 10.3394 25.3868 10.5783C25.6147 10.8172 25.7829 11.0984 25.8797 11.4024C25.9766 11.7065 25.9997 12.0261 25.9476 12.3391L24.2944 22.1667C24.2078 22.6874 23.9176 23.1621 23.4773 23.5032C23.037 23.8443 22.4763 24.0289 21.8985 24.023H8.38563M8.38563 12.0115V24.023M8.38563 12.0115H4.79178C4.15634 12.0115 3.54694 12.2416 3.09762 12.6511C2.6483 13.0607 2.39587 13.6162 2.39587 14.1954V21.8391C2.39587 22.4183 2.6483 22.9738 3.09762 23.3833C3.54694 23.7929 4.15634 24.023 4.79178 24.023H8.38563" stroke="#1E1E1E" stroke-width="2" stroke-linecap="round" stroke-linejoin="round"/>
</svg>
