<svg width="90" height="63" viewBox="0 0 90 63" fill="none" xmlns="http://www.w3.org/2000/svg">
<path d="M76 41L68 59C66.4087 59 64.8826 58.3679 63.7574 57.2426C62.6321 56.1174 62 54.5913 62 53V45H50.68C50.1002 45.0066 49.5259 44.887 48.9969 44.6496C48.4678 44.4121 47.9968 44.0625 47.6163 43.625C47.2358 43.1874 46.955 42.6723 46.7933 42.1155C46.6317 41.5586 46.593 40.9733 46.68 40.4L49.44 22.4C49.5846 21.4462 50.0691 20.5768 50.8042 19.952C51.5392 19.3272 52.4753 18.9891 53.44 19H76M76 41V19M76 41H81.34C82.4719 41.02 83.5718 40.6237 84.4308 39.8864C85.2899 39.149 85.8483 38.1219 86 37V23C85.8483 21.8781 85.2899 20.851 84.4308 20.1136C83.5718 19.3763 82.4719 18.98 81.34 19H76" stroke="#1E1E1E" stroke-width="4" stroke-linecap="round" stroke-linejoin="round"/>
<path d="M14 22L22 4C23.5913 4 25.1174 4.63214 26.2426 5.75736C27.3679 6.88258 28 8.4087 28 10V18H39.32C39.8998 17.9934 40.4741 18.113 41.0031 18.3504C41.5322 18.5879 42.0032 18.9375 42.3837 19.375C42.7642 19.8126 43.045 20.3276 43.2067 20.8845C43.3683 21.4414 43.407 22.0267 43.32 22.6L40.56 40.6C40.4154 41.5538 39.9309 42.4232 39.1958 43.048C38.4608 43.6728 37.5247 44.0109 36.56 44H14M14 22V44M14 22H8C6.93913 22 5.92172 22.4214 5.17157 23.1716C4.42143 23.9217 4 24.9391 4 26V40C4 41.0609 4.42143 42.0783 5.17157 42.8284C5.92172 43.5786 6.93913 44 8 44H14" stroke="#1E1E1E" stroke-width="4" stroke-linecap="round" stroke-linejoin="round"/>
</svg>
